<svg width="23" height="23" viewBox="0 0 23 23" fill="none" xmlns="http://www.w3.org/2000/svg">
<g id="&#240;&#159;&#166;&#134; icon &#34;clock&#34;" filter="url(#filter0_d_1_328)">
<path id="Vector" d="M11.5 4C7.3675 4 4 7.27308 4 11.2897C4 15.3064 7.3675 18.5794 11.5 18.5794C15.6325 18.5794 19 15.3064 19 11.2897C19 7.27308 15.6325 4 11.5 4ZM14.7625 13.8921C14.6575 14.0671 14.47 14.1619 14.275 14.1619C14.1775 14.1619 14.08 14.14 13.99 14.0817L11.665 12.7331C11.0875 12.3978 10.66 11.6615 10.66 11.0127V8.02393C10.66 7.72505 10.915 7.4772 11.2225 7.4772C11.53 7.4772 11.785 7.72505 11.785 8.02393V11.0127C11.785 11.2751 12.01 11.6615 12.2425 11.7927L14.5675 13.1413C14.8375 13.2944 14.9275 13.6297 14.7625 13.8921Z" fill="white"/>
</g>
<defs>
<filter id="filter0_d_1_328" x="0" y="0" width="23" height="22.5795" filterUnits="userSpaceOnUse" color-interpolation-filters="sRGB">
<feFlood flood-opacity="0" result="BackgroundImageFix"/>
<feColorMatrix in="SourceAlpha" type="matrix" values="0 0 0 0 0 0 0 0 0 0 0 0 0 0 0 0 0 0 127 0" result="hardAlpha"/>
<feOffset/>
<feGaussianBlur stdDeviation="2"/>
<feColorMatrix type="matrix" values="0 0 0 0 1 0 0 0 0 1 0 0 0 0 1 0 0 0 0.5 0"/>
<feBlend mode="normal" in2="BackgroundImageFix" result="effect1_dropShadow_1_328"/>
<feBlend mode="normal" in="SourceGraphic" in2="effect1_dropShadow_1_328" result="shape"/>
</filter>
</defs>
</svg>
